HIERARCHY
ROOT Hips
{
	OFFSET	0	0	0
	CHANNELS 6  Xposition Yposition Zposition Xrotation Yrotation Zrotation
	JOINT Spine
	{
		OFFSET	0	6.81137	1.36784
		CHANNELS 3  Xrotation Yrotation Zrotation
		JOINT Spine1
		{
			OFFSET	0	11.6648	-2.083
			CHANNELS 3  Xrotation Yrotation Zrotation
			JOINT Spine2
			{
				OFFSET	0	8.84235	0.947767
				CHANNELS 3  Xrotation Yrotation Zrotation
				JOINT Spine3
				{
					OFFSET	0	10.5817	3.14534
					CHANNELS 3  Xrotation Yrotation Zrotation
					JOINT Spine4
					{
						OFFSET	0	15.6642	-1.60391
						CHANNELS 3  Xrotation Yrotation Zrotation
						JOINT Neck
						{
							OFFSET	0	7.47798	-5.23875
							CHANNELS 3  Xrotation Yrotation Zrotation
							JOINT Head
							{
								OFFSET	0	8.97775	-2.68707
								CHANNELS 3  Xrotation Yrotation Zrotation
								End Site
								{
									OFFSET	0	18.7262	-0.906107
								}
							}
						}
					}
					JOINT LeftShoulder
					{
						OFFSET	-4.49929	19.0387	-8.97775
						CHANNELS 3  Xrotation Yrotation Zrotation
						JOINT LeftArm
						{
							OFFSET	-9.81417	-2.68707	3.44739
							CHANNELS 3  Xrotation Yrotation Zrotation
							JOINT LeftForeArm
							{
								OFFSET	-33.0157	-1.50689	2.35663
								CHANNELS 3  Xrotation Yrotation Zrotation
								JOINT LeftHand
								{
									OFFSET	-25.9733	-1.7949	1.85395
									CHANNELS 3  Xrotation Yrotation Zrotation
									End Site
									{
										OFFSET	-9.47896	-0.655051	0.676554
									}
								}
							}
						}
					}
					JOINT RightShoulder
					{
						OFFSET	4.49929	19.0387	-8.97775
						CHANNELS 3  Xrotation Yrotation Zrotation
						JOINT RightArm
						{
							OFFSET	9.81417	-2.68707	3.44739
							CHANNELS 3  Xrotation Yrotation Zrotation
							JOINT RightForeArm
							{
								OFFSET	33.0157	-1.50689	2.35663
								CHANNELS 3  Xrotation Yrotation Zrotation
								JOINT RightHand
								{
									OFFSET	25.9733	-1.7949	1.85395
									CHANNELS 3  Xrotation Yrotation Zrotation
									End Site
									{
										OFFSET	9.47896	-0.655051	0.676554
									}
								}
							}
						}
					}
				}
			}
		}
	}
	JOINT LeftUpLeg
	{
		OFFSET	-9.2746	-3.40568	-0.68392
		CHANNELS 3  Xrotation Yrotation Zrotation
		JOINT LeftLeg
		{
			OFFSET	-2.10167	-41.1814	-0.643755
			CHANNELS 3  Xrotation Yrotation Zrotation
			JOINT LeftFoot
			{
				OFFSET	-2.05436	-37.8685	3.25669
				CHANNELS 3  Xrotation Yrotation Zrotation
				JOINT LeftToeBase
				{
					OFFSET	0	-4.68304	-12.4382
					CHANNELS 3  Xrotation Yrotation Zrotation
					End Site
					{
						OFFSET	0	-1.87322	-7.49286
					}
				}
			}
		}
	}
	JOINT RightUpLeg
	{
		OFFSET	9.2746	-3.40568	-0.68392
		CHANNELS 3  Xrotation Yrotation Zrotation
		JOINT RightLeg
		{
			OFFSET	2.10167	-41.1814	-0.643755
			CHANNELS 3  Xrotation Yrotation Zrotation
			JOINT RightFoot
			{
				OFFSET	2.05436	-37.8685	3.25669
				CHANNELS 3  Xrotation Yrotation Zrotation
				JOINT RightToeBase
				{
					OFFSET	0	-4.68304	-12.4382
					CHANNELS 3  Xrotation Yrotation Zrotation
					End Site
					{
						OFFSET	0	-1.87322	-7.49286
					}
				}
			}
		}
	}
}
MOTION
Frames: 8
Frame Time: 0.020409
 50.2127 90.2798 -256.973 176.736 -15.8792 -179.302 179.997 -179.93 177.694 177.526 -179.859 176.156 177.903 -179.578 176.156 179.541 -179.93 177.694 176.409 179.952 179.233 172.079 173.551 -175.662 177.601 171.725 -178.013 1.51617 -20.1808 3.26863 14.6876 6.95565 14.2112 169.51 -144.798 172.294 -0 -6.34698 3.69741 179.62 164.409 -179.193 163.777 139.112 118.993 179.103 168.855 -178.034 -0 3.60289 5.86813 10.097 -0.257191 -3.94835 158.07 175.311 179.696 177.778 179.711 177.001 2.12239 0 0 2.50074 9.26094 -11.2158 170.015 165.773 -176.112 0.895788 1.88729 2.34485 1.93202 0 0
 51.0302 90.2233 -256.935 176.74 -14.5838 -178.945 179.998 -179.954 177.659 177.495 -179.908 176.098 177.949 -179.724 176.098 179.734 -179.954 177.659 175.897 179.944 179.222 170.662 173.23 -175.599 177.162 170.87 -177.889 1.51195 -19.2372 3.2523 14.2689 7.35045 14.3921 168.308 -143.075 171.248 -0 -6.18152 5.56604 179.643 164.044 -179.239 164.073 139.38 118.296 179.049 170.585 -178.076 -0 3.23781 6.04052 8.76563 -0.721485 -4.47475 158.335 176.04 179.866 179.779 179.992 177.392 2.12862 0 0 2.559 9.56639 -11.0076 169.606 165.99 -176.145 1.46663 1.71426 0.395819 1.92278 0 0
 51.628 90.0867 -256.713 176.566 -15.2797 -178.43 179.994 -179.855 177.583 177.531 -179.71 175.971 178.015 -179.13 175.971 179.937 -179.855 177.583 175.508 179.937 179.197 169.509 172.942 -175.418 176.804 170.211 -177.75 1.48619 -18.7905 3.19317 13.9601 7.5 14.3093 167.191 -141.827 170.219 -0 -5.846 7.11911 179.564 163.603 -179.07 164.363 139.604 117.693 178.955 172.304 -178.137 -0 2.95477 6.28049 7.6677 0.203502 -5.70847 159.437 175.968 -178.388 5.584 0.944599 1.20773 2.25736 0 0 2.20814 9.82934 -11.2941 169.485 165.962 -176.182 2.0183 2.02986 2.06635 1.87601 0 0
 52.2323 90.0962 -256.662 176.267 -14.2108 -178.25 179.994 -179.858 177.562 177.459 -179.717 175.937 177.977 -179.151 175.937 179.986 -179.858 177.562 175.257 179.933 179.19 168.872 172.752 -175.503 176.601 169.651 -177.7 1.54651 -18.3918 3.31934 13.8487 7.56901 14.2413 165.996 -139.983 169.111 -0 -5.80048 8.56268 179.789 163.025 -179.549 164.857 139.767 117.057 178.814 174.224 -178.079 -0 2.63727 6.57075 6.73369 0.0876114 -5.03821 159.619 176.028 -179.12 6.03616 0.859367 0.790411 2.22582 0 0 2.03189 10.309 -11.2817 169.196 166.038 -175.954 2.2635 1.88102 1.22561 1.86471 0 0
 52.7313 90.1139 -256.479 176.029 -13.5042 -178.12 179.994 -179.854 177.582 177.45 -179.709 175.969 177.98 -179.127 175.969 0.020633 -0.145668 -2.41844 175.16 179.932 179.197 168.617 172.678 -175.787 176.514 169.254 -177.727 1.52534 -17.8341 3.26867 13.9042 7.88525 14.3308 164.936 -138.699 168.125 -0 -5.75612 9.82949 179.732 162.619 -179.428 164.19 140.311 116.649 178.628 174.214 -178.098 -0 2.3388 6.5897 5.84783 0.0797675 -4.476 160.092 176.043 -179.708 6.28779 0.774202 0.609162 2.21353 0 0 1.43126 10.813 -11.3902 169.584 165.872 -175.691 2.18073 2.03878 1.78369 1.83257 0 0
 53.6579 90.0647 -256.742 175.739 -12.4442 -178.009 179.994 -179.858 177.638 177.417 -179.717 176.064 177.972 -179.15 176.063 0.067131 -0.141925 -2.36171 174.987 179.931 179.216 168.189 173.049 -177.083 176.369 168.964 -178.028 1.45429 -17.2857 3.11109 14.0877 7.94099 14.4116 163.84 -137.678 167.182 -0 -5.54147 10.8966 179.872 161.509 -179.725 163.587 140.64 116.102 178.35 174.495 -177.989 -0 1.77676 6.65955 5.18094 -0.215051 -2.52034 160.439 176.267 179.467 6.89827 0.314213 -0.445418 2.16856 0 0 1.50374 11.3306 -11.387 169.161 165.863 -175.346 2.3532 2.08599 1.13721 1.80984 0 0
 54.1824 90.1653 -256.704 175.778 -11.0094 -177.545 179.996 -179.908 177.657 177.441 -179.817 176.095 178.016 -179.451 176.095 0.0976365 -0.0917168 -2.34311 174.955 179.931 179.222 168.097 173.239 -177.991 176.332 168.682 -178.236 1.41597 -17.1277 3.02753 14.2749 7.73984 14.6925 162.844 -136.767 166.299 -0 -5.4147 12.0554 179.951 159.762 -179.894 163.74 140.884 115.3 178.118 174.522 -177.939 -0 1.2042 6.78694 4.46927 -0.1003 -1.24764 160.976 176.475 179.1 8.54705 0.127256 -1.06762 2.13639 0 0 1.53796 11.9791 -11.183 169.71 166.054 -175.913 1.92285 1.98184 -0.13549 1.80707 0 0
 54.5784 90.329 -256.612 175.852 -10.0844 -177.478 179.997 -179.912 177.842 177.497 -179.823 176.403 178.081 -179.47 176.403 0.153991 -0.0883829 -2.15799 174.926 179.936 179.283 167.973 173.333 -178.608 176.287 168.421 -178.367 1.28767 -16.6089 2.74837 14.2702 7.65976 15.0095 161.796 -135.415 165.289 -0 -5.47838 13.2818 0.083895 21.6987 -0.181316 164.101 141.107 114.06 177.942 174.416 -178.024 -0 0.735684 6.90261 4.40588 -0.0651496 -0.0515444 161.921 177.268 -179.732 13.3921 -0.178823 -0.811904 2.14489 0 0 1.2459 12.1307 -10.6274 170.448 166.181 -176.564 1.35303 1.70499 -1.14097 1.80204 0 0
